name C:\Users\u0101727\Documents\MyRepositories\upper-imu-dc\OpenSim\subject0\MA\MA_Splines\angle_in_n6_dof6_1.mot
datacolumns 7
datarows 60
range 175.01000000 175.60000000
endheader 
time	clav_prot	clav_elev	scapula_abduction	scapula_elevation	scapula_upward_rot	scapula_winging	
        175.01000000	        -23.33033544	         -7.65248351	        -37.40470623	          1.12405674	         23.68359952	         -7.41021064	
        175.02000000	        -16.90593547	         -7.65248351	        -37.40470623	          1.12405674	         23.68359952	         -7.41021064	
        175.03000000	        -49.02793530	         -2.74924671	        -37.40470623	          1.12405674	         23.68359952	         -7.41021064	
        175.04000000	        -42.60353533	         -2.74924671	        -37.40470623	          1.12405674	         23.68359952	         -7.41021064	
        175.05000000	        -36.17913537	         -2.74924671	        -37.40470623	          1.12405674	         23.68359952	         -7.41021064	
        175.06000000	        -29.75473540	         -2.74924671	        -37.40470623	          1.12405674	         23.68359952	         -7.41021064	
        175.07000000	        -23.33033544	         -2.74924671	        -37.40470623	          1.12405674	         23.68359952	         -7.41021064	
        175.08000000	        -16.90593547	         -2.74924671	        -37.40470623	          1.12405674	         23.68359952	         -7.41021064	
        175.09000000	        -49.02793530	          2.15399008	        -37.40470623	          1.12405674	         23.68359952	         -7.41021064	
        175.10000000	        -42.60353533	          2.15399008	        -37.40470623	          1.12405674	         23.68359952	         -7.41021064	
        175.11000000	        -36.17913537	          2.15399008	        -37.40470623	          1.12405674	         23.68359952	         -7.41021064	
        175.12000000	        -29.75473540	          2.15399008	        -37.40470623	          1.12405674	         23.68359952	         -7.41021064	
        175.13000000	        -23.33033544	          2.15399008	        -37.40470623	          1.12405674	         23.68359952	         -7.41021064	
        175.14000000	        -16.90593547	          2.15399008	        -37.40470623	          1.12405674	         23.68359952	         -7.41021064	
        175.15000000	        -49.02793530	          7.05722688	        -37.40470623	          1.12405674	         23.68359952	         -7.41021064	
        175.16000000	        -42.60353533	          7.05722688	        -37.40470623	          1.12405674	         23.68359952	         -7.41021064	
        175.17000000	        -36.17913537	          7.05722688	        -37.40470623	          1.12405674	         23.68359952	         -7.41021064	
        175.18000000	        -29.75473540	          7.05722688	        -37.40470623	          1.12405674	         23.68359952	         -7.41021064	
        175.19000000	        -23.33033544	          7.05722688	        -37.40470623	          1.12405674	         23.68359952	         -7.41021064	
        175.20000000	        -16.90593547	          7.05722688	        -37.40470623	          1.12405674	         23.68359952	         -7.41021064	
        175.21000000	        -49.02793530	         11.96046367	        -37.40470623	          1.12405674	         23.68359952	         -7.41021064	
        175.22000000	        -42.60353533	         11.96046367	        -37.40470623	          1.12405674	         23.68359952	         -7.41021064	
        175.23000000	        -36.17913537	         11.96046367	        -37.40470623	          1.12405674	         23.68359952	         -7.41021064	
        175.24000000	        -29.75473540	         11.96046367	        -37.40470623	          1.12405674	         23.68359952	         -7.41021064	
        175.25000000	        -23.33033544	         11.96046367	        -37.40470623	          1.12405674	         23.68359952	         -7.41021064	
        175.26000000	        -16.90593547	         11.96046367	        -37.40470623	          1.12405674	         23.68359952	         -7.41021064	
        175.27000000	        -49.02793530	         16.86370047	        -37.40470623	          1.12405674	         23.68359952	         -7.41021064	
        175.28000000	        -42.60353533	         16.86370047	        -37.40470623	          1.12405674	         23.68359952	         -7.41021064	
        175.29000000	        -36.17913537	         16.86370047	        -37.40470623	          1.12405674	         23.68359952	         -7.41021064	
        175.30000000	        -29.75473540	         16.86370047	        -37.40470623	          1.12405674	         23.68359952	         -7.41021064	
        175.31000000	        -23.33033544	         16.86370047	        -37.40470623	          1.12405674	         23.68359952	         -7.41021064	
        175.32000000	        -16.90593547	         16.86370047	        -37.40470623	          1.12405674	         23.68359952	         -7.41021064	
        175.33000000	        -49.02793530	         -7.65248351	        -27.66618321	          1.12405674	         23.68359952	         -7.41021064	
        175.34000000	        -42.60353533	         -7.65248351	        -27.66618321	          1.12405674	         23.68359952	         -7.41021064	
        175.35000000	        -36.17913537	         -7.65248351	        -27.66618321	          1.12405674	         23.68359952	         -7.41021064	
        175.36000000	        -29.75473540	         -7.65248351	        -27.66618321	          1.12405674	         23.68359952	         -7.41021064	
        175.37000000	        -23.33033544	         -7.65248351	        -27.66618321	          1.12405674	         23.68359952	         -7.41021064	
        175.38000000	        -16.90593547	         -7.65248351	        -27.66618321	          1.12405674	         23.68359952	         -7.41021064	
        175.39000000	        -49.02793530	         -2.74924671	        -27.66618321	          1.12405674	         23.68359952	         -7.41021064	
        175.40000000	        -42.60353533	         -2.74924671	        -27.66618321	          1.12405674	         23.68359952	         -7.41021064	
        175.41000000	        -36.17913537	         -2.74924671	        -27.66618321	          1.12405674	         23.68359952	         -7.41021064	
        175.42000000	        -29.75473540	         -2.74924671	        -27.66618321	          1.12405674	         23.68359952	         -7.41021064	
        175.43000000	        -23.33033544	         -2.74924671	        -27.66618321	          1.12405674	         23.68359952	         -7.41021064	
        175.44000000	        -16.90593547	         -2.74924671	        -27.66618321	          1.12405674	         23.68359952	         -7.41021064	
        175.45000000	        -49.02793530	          2.15399008	        -27.66618321	          1.12405674	         23.68359952	         -7.41021064	
        175.46000000	        -42.60353533	          2.15399008	        -27.66618321	          1.12405674	         23.68359952	         -7.41021064	
        175.47000000	        -36.17913537	          2.15399008	        -27.66618321	          1.12405674	         23.68359952	         -7.41021064	
        175.48000000	        -29.75473540	          2.15399008	        -27.66618321	          1.12405674	         23.68359952	         -7.41021064	
        175.49000000	        -23.33033544	          2.15399008	        -27.66618321	          1.12405674	         23.68359952	         -7.41021064	
        175.50000000	        -16.90593547	          2.15399008	        -27.66618321	          1.12405674	         23.68359952	         -7.41021064	
        175.51000000	        -49.02793530	          7.05722688	        -27.66618321	          1.12405674	         23.68359952	         -7.41021064	
        175.52000000	        -42.60353533	          7.05722688	        -27.66618321	          1.12405674	         23.68359952	         -7.41021064	
        175.53000000	        -36.17913537	          7.05722688	        -27.66618321	          1.12405674	         23.68359952	         -7.41021064	
        175.54000000	        -29.75473540	          7.05722688	        -27.66618321	          1.12405674	         23.68359952	         -7.41021064	
        175.55000000	        -23.33033544	          7.05722688	        -27.66618321	          1.12405674	         23.68359952	         -7.41021064	
        175.56000000	        -16.90593547	          7.05722688	        -27.66618321	          1.12405674	         23.68359952	         -7.41021064	
        175.57000000	        -49.02793530	         11.96046367	        -27.66618321	          1.12405674	         23.68359952	         -7.41021064	
        175.58000000	        -42.60353533	         11.96046367	        -27.66618321	          1.12405674	         23.68359952	         -7.41021064	
        175.59000000	        -36.17913537	         11.96046367	        -27.66618321	          1.12405674	         23.68359952	         -7.41021064	
        175.60000000	        -29.75473540	         11.96046367	        -27.66618321	          1.12405674	         23.68359952	         -7.41021064	
